<svg width="23" height="22" viewBox="0 0 23 22" fill="none" xmlns="http://www.w3.org/2000/svg">
<path d="M19.7269 0H3.27307C1.41538 0 0 1.35385 0 3.13077V18.8692C0 20.6462 1.41538 22 3.27307 22H19.7269C21.5846 22 23 20.6462 23 18.8692V3.13077C23 1.35385 21.5846 0 19.7269 0ZM11.5 17.6C15.3038 17.6 18.4 14.7231 18.4 11.2538C18.4 10.6615 18.3115 9.98462 18.1346 9.47692H20.0808V18.4462C20.0808 18.8692 19.7269 19.2923 19.1961 19.2923H3.80385C3.36154 19.2923 2.91923 18.9538 2.91923 18.4462V9.39231H4.95385C4.77693 9.98461 4.68846 10.5769 4.68846 11.1692C4.6 14.7231 7.69615 17.6 11.5 17.6ZM11.5 15.0615C9.02308 15.0615 7.07692 13.2 7.07692 10.9154C7.07692 8.63077 9.02308 6.76923 11.5 6.76923C13.9769 6.76923 15.9231 8.63077 15.9231 10.9154C15.9231 13.2846 13.9769 15.0615 11.5 15.0615ZM19.9923 6.00769C19.9923 6.51538 19.55 6.93846 19.0192 6.93846H16.5423C16.0115 6.93846 15.5692 6.51538 15.5692 6.00769V3.72308C15.5692 3.21538 16.0115 2.79231 16.5423 2.79231H19.0192C19.55 2.79231 19.9923 3.21538 19.9923 3.72308V6.00769Z" fill="#F2F2F2"/>
</svg>
