<svg width="21" height="19" viewBox="0 0 21 19" fill="none" xmlns="http://www.w3.org/2000/svg">
<path d="M1.52067 9.45049L5.88886 11.0793L7.5917 16.558C7.66574 16.9282 8.10996 17.0023 8.40611 16.7801L10.8493 14.7812C11.0714 14.559 11.4416 14.559 11.7378 14.7812L16.1059 17.9647C16.4021 18.1868 16.8463 18.0388 16.9204 17.6686L20.178 2.12084C20.252 1.75066 19.8818 1.38047 19.5116 1.52855L1.52067 8.48802C1.07644 8.63609 1.07644 9.30242 1.52067 9.45049Z" stroke="white" stroke-width="1.2"/>
<path d="M8.7445 9.77938L15.8405 5.65525C15.9629 5.59716 16.0852 5.77142 15.9629 5.82951L10.1515 10.9992C9.96795 11.1735 9.78443 11.4058 9.78443 11.6962L9.60092 13.0903C9.60092 13.2646 9.29505 13.3227 9.23388 13.0903L8.4998 10.5345C8.31628 10.2441 8.43864 9.89555 8.7445 9.77938Z" stroke="white" stroke-width="0.7"/>
</svg>
