<svg width="21" height="24" viewBox="0 0 21 24" fill="none" xmlns="http://www.w3.org/2000/svg">
<path d="M1.435 5.83274L0.788243 5.67105L0.788243 5.67105L1.435 5.83274ZM5.22513 2.14105L5.08051 1.49026L5.22513 2.14105ZM1.435 14.7086L2.08177 14.5469L1.435 14.7086ZM4.98481 18.3407H5.65148V17.8322L5.16115 17.6977L4.98481 18.3407ZM5.9393 22.3311L5.46058 21.8671L5.46058 21.8671L5.9393 22.3311ZM9.15903 19.0091L9.20215 18.3438L8.89472 18.3239L8.68031 18.5451L9.15903 19.0091ZM15.3284 18.5333L15.1838 17.8825L15.1837 17.8825L15.3284 18.5333ZM15.9271 18.4003L16.0717 19.0511L16.0717 19.0511L15.9271 18.4003ZM19.7172 14.7086L20.364 14.8703L20.364 14.8703L19.7172 14.7086ZM19.7172 5.83275L20.364 5.67105L20.364 5.67105L19.7172 5.83275ZM15.9271 2.14105L16.0717 1.49026L16.0717 1.49026L15.9271 2.14105ZM15.3284 2.00799L15.1838 2.65879L15.1838 2.65879L15.3284 2.00799ZM5.82387 2.00799L5.96849 2.65878L5.96849 2.65878L5.82387 2.00799ZM2.08177 5.99444C2.48279 4.39036 3.75568 3.15052 5.36975 2.79184L5.08051 1.49026C2.97343 1.9585 1.31175 3.57702 0.788243 5.67105L2.08177 5.99444ZM2.08177 14.5469C1.37986 11.7393 1.37986 8.80205 2.08177 5.99444L0.788243 5.67105C0.0332594 8.69099 0.0332594 11.8503 0.788243 14.8703L2.08177 14.5469ZM5.16115 17.6977C3.64668 17.2823 2.46535 16.0812 2.08177 14.5469L0.788243 14.8703C1.28901 16.8733 2.83114 18.4412 4.80847 18.9836L5.16115 17.6977ZM5.65148 21.9444V18.3407H4.31815V21.9444H5.65148ZM5.46058 21.8671C5.4712 21.8561 5.49354 21.8418 5.52244 21.8365C5.54758 21.8318 5.56779 21.8356 5.58209 21.8414C5.59639 21.8472 5.61354 21.8586 5.62836 21.8794C5.64539 21.9033 5.65148 21.9292 5.65148 21.9444H4.31815C4.31815 23.0425 5.65375 23.5836 6.41801 22.795L5.46058 21.8671ZM8.68031 18.5451L5.46058 21.8671L6.41801 22.795L9.63774 19.4731L8.68031 18.5451ZM15.1837 17.8825C13.2164 18.3197 11.2023 18.4735 9.20215 18.3438L9.1159 19.6744C11.2417 19.8122 13.3821 19.6488 15.473 19.1841L15.1837 17.8825ZM15.7825 17.7495L15.1838 17.8825L15.473 19.1841L16.0717 19.0511L15.7825 17.7495ZM19.0705 14.5469C18.6695 16.151 17.3966 17.3908 15.7825 17.7495L16.0717 19.0511C18.1788 18.5828 19.8405 16.9643 20.364 14.8703L19.0705 14.5469ZM19.0705 5.99444C19.7724 8.80205 19.7724 11.7393 19.0705 14.5469L20.364 14.8703C21.119 11.8503 21.119 8.69099 20.364 5.67105L19.0705 5.99444ZM15.7825 2.79184C17.3966 3.15052 18.6695 4.39036 19.0705 5.99444L20.364 5.67105C19.8405 3.57702 18.1788 1.9585 16.0717 1.49026L15.7825 2.79184ZM15.1838 2.65879L15.7825 2.79184L16.0717 1.49026L15.473 1.3572L15.1838 2.65879ZM5.96849 2.65878C9.00323 1.9844 12.149 1.9844 15.1838 2.65879L15.473 1.3572C12.2477 0.640481 8.9045 0.640481 5.67925 1.3572L5.96849 2.65878ZM5.36975 2.79184L5.96849 2.65878L5.67925 1.3572L5.08051 1.49026L5.36975 2.79184Z" fill="white"/>
<path d="M6.40961 10.4819L7.73762 9.29943C7.96104 9.05041 8.00068 8.66247 7.83322 8.36383L6.83522 6.58405C6.64469 6.24428 6.25733 6.13661 5.95176 6.31075C5.86112 6.36241 5.77817 6.42773 5.68504 6.47473L5.15293 6.74323C5.05979 6.79022 4.96666 6.84635 4.91686 6.93802C4.85551 7.05096 4.83602 7.18882 4.86719 7.32087L4.93537 7.60963C5.89902 11.6911 8.73479 14.8952 12.3832 16.0247C12.5179 16.0665 12.6624 16.0318 12.7699 15.932L13.3541 15.4819C13.6905 15.1694 13.6772 14.5888 13.3268 14.2959L11.9565 13.1295C11.6864 12.9036 11.1666 12.9472 10.8829 13.0646L9.06586 13.9194" stroke="white" stroke-width="1.44444"/>
<path d="M11.4668 8.0127C12.7158 8.13001 13.1374 8.91214 13.0473 9.87119" stroke="white" stroke-width="0.777778" stroke-linecap="round"/>
<path d="M11.0322 6.17969C14.0103 6.45942 15.0157 8.32437 14.8009 10.6112" stroke="white" stroke-width="0.777778" stroke-linecap="round"/>
<path d="M10.6748 4.4668C15.3182 4.90295 16.8858 7.81072 16.5509 11.3762" stroke="white" stroke-width="0.777778" stroke-linecap="round"/>
</svg>
