<svg width="26" height="19" viewBox="0 0 26 19" fill="none" xmlns="http://www.w3.org/2000/svg">
<path d="M26 7.29292C26 6.71716 25.9051 6.04545 25.9051 5.27778C25.8102 4.5101 25.7153 3.74242 25.6204 3.0707C25.4307 2.30303 25.146 1.72728 24.5766 1.24748C24.1022 0.76768 23.438 0.479792 22.7737 0.383832C20.5912 0.0959537 17.365 0 13 0C8.63505 0 5.31386 0.0959537 3.22627 0.383832C2.56204 0.479792 1.89781 0.76768 1.42336 1.24748C0.948905 1.72728 0.569337 2.30303 0.379556 3.0707C0.189775 3.74242 0.0948963 4.41414 0.0948963 5.27778C5.79024e-06 6.04545 0 6.71716 0 7.29292C0 7.86868 0 8.5404 0 9.49999C0 10.4596 0 11.2273 0 11.7071C0 12.2828 0.0948963 12.9545 0.0948963 13.7222C0.189787 14.4899 0.284666 15.2576 0.379556 15.9293C0.569337 16.697 0.854015 17.2727 1.42336 17.7525C1.89781 18.2323 2.56204 18.5202 3.22627 18.6162C5.40875 18.904 8.63505 19 13 19C17.365 19 20.6861 18.904 22.7737 18.6162C23.438 18.5202 24.1022 18.2323 24.5766 17.7525C25.0511 17.2727 25.4307 16.697 25.6204 15.9293C25.8102 15.2576 25.9051 14.5859 25.9051 13.7222C26 12.9545 26 12.2828 26 11.7071C26 11.1313 26 10.4596 26 9.49999C26 8.5404 26 7.77272 26 7.29292ZM18.0292 10.2677L10.5329 14.9697C10.438 15.0656 10.2482 15.1616 10.0584 15.1616C9.86862 15.1616 9.77373 15.1616 9.58395 15.0657C9.29928 14.8737 9.1095 14.5859 9.1095 14.202V4.70201C9.1095 4.31818 9.29928 4.0303 9.58395 3.83838C9.86862 3.64646 10.2482 3.64646 10.5329 3.83838L18.0292 8.5404C18.3139 8.73232 18.5037 9.0202 18.5037 9.30808C18.5037 9.59595 18.3139 10.0758 18.0292 10.2677Z" fill="#F2F2F2"/>
</svg>
